<svg width="49" height="48" viewBox="0 0 49 48" fill="none" xmlns="http://www.w3.org/2000/svg">
<rect x="0.280029" width="48" height="48" rx="24" fill="white" fill-opacity="0.2"/>
<g clip-path="url(#clip0_67_205)">
<path fill-rule="evenodd" clip-rule="evenodd" d="M24.28 14C24.8323 14 25.28 14.4477 25.28 15V23H33.28C33.8323 23 34.28 23.4477 34.28 24C34.28 24.5523 33.8323 25 33.28 25H25.28V33C25.28 33.5523 24.8323 34 24.28 34C23.7277 34 23.28 33.5523 23.28 33V25H15.28C14.7277 25 14.28 24.5523 14.28 24C14.28 23.4477 14.7277 23 15.28 23H23.28V15C23.28 14.4477 23.7277 14 24.28 14Z" fill="white"/>
</g>
<defs>
<clipPath id="clip0_67_205">
<rect width="24" height="24" fill="white" transform="translate(12.28 12)"/>
</clipPath>
</defs>
</svg>
