<svg width="122" height="76" viewBox="0 0 122 76" fill="none" xmlns="http://www.w3.org/2000/svg">
<g clip-path="url(#clip0_67_182)">
<path d="M33.7278 39.1C33.8835 38.9473 34.0075 38.7653 34.0925 38.5645C34.1774 38.3636 34.2218 38.1479 34.2229 37.9298C34.224 37.7118 34.1818 37.4956 34.0989 37.2939C34.0159 37.0922 33.8938 36.909 33.7396 36.7548C33.5854 36.6006 33.4022 36.4785 33.2005 36.3955C32.9988 36.3126 32.7826 36.2704 32.5646 36.2715C32.3465 36.2726 32.1308 36.3169 31.9299 36.4019C31.7291 36.4869 31.5471 36.6109 31.3944 36.7666C31.0902 37.0771 30.9207 37.4951 30.9229 37.9298C30.9251 38.3645 31.0988 38.7808 31.4062 39.0882C31.7136 39.3956 32.1298 39.5693 32.5646 39.5715C32.9993 39.5737 33.4173 39.4042 33.7278 39.1ZM26.9155 39.1C27.0713 38.9473 27.1953 38.7653 27.2802 38.5645C27.3652 38.3636 27.4095 38.1479 27.4106 37.9298C27.4117 37.7118 27.3696 37.4956 27.2867 37.2939C27.2037 37.0922 27.0816 36.909 26.9274 36.7548C26.7732 36.6006 26.5899 36.4785 26.3882 36.3955C26.1865 36.3126 25.9704 36.2704 25.7523 36.2715C25.5342 36.2726 25.3186 36.3169 25.1177 36.4019C24.9169 36.4869 24.7349 36.6109 24.5822 36.7666C24.2779 37.0771 24.1085 37.4951 24.1107 37.9298C24.1129 38.3645 24.2865 38.7808 24.5939 39.0882C24.9013 39.3956 25.3176 39.5693 25.7523 39.5715C26.187 39.5737 26.6051 39.4042 26.9155 39.1ZM30.345 33.3722C30.1925 33.216 30.0106 33.0916 29.8097 33.0062C29.6088 32.9209 29.393 32.8763 29.1747 32.8749C28.9565 32.8736 28.7401 32.9156 28.5382 32.9985C28.3363 33.0814 28.1528 33.2035 27.9985 33.3579C27.8441 33.5122 27.7219 33.6956 27.639 33.8975C27.556 34.0994 27.514 34.3157 27.5152 34.534C27.5165 34.7523 27.5611 34.9681 27.6464 35.169C27.7317 35.3699 27.8561 35.5519 28.0122 35.7044C28.3227 36.0077 28.7403 36.1763 29.1743 36.1738C29.6084 36.1712 30.0239 35.9977 30.3309 35.6908C30.6378 35.3839 30.8114 34.9684 30.8141 34.5344C30.8167 34.1004 30.6482 33.6828 30.345 33.3722ZM30.345 40.1844C30.1925 40.0282 30.0106 39.9038 29.8097 39.8185C29.6088 39.7331 29.393 39.6885 29.1747 39.6871C28.9565 39.6858 28.7401 39.7278 28.5382 39.8107C28.3363 39.8936 28.1528 40.0158 27.9985 40.1701C27.8441 40.3244 27.7219 40.5078 27.639 40.7097C27.556 40.9116 27.514 41.128 27.5152 41.3462C27.5165 41.5645 27.5611 41.7803 27.6464 41.9812C27.7317 42.1821 27.8561 42.3641 28.0122 42.5166C28.3227 42.8199 28.7403 42.9885 29.1743 42.986C29.6084 42.9834 30.0239 42.8099 30.3309 42.503C30.6378 42.1962 30.8114 41.7807 30.8141 41.3466C30.8167 40.9126 30.6482 40.495 30.345 40.1844ZM29.4872 37.6127C29.4436 37.5691 29.3918 37.5344 29.3348 37.5108C29.2777 37.4871 29.2166 37.4749 29.1549 37.4749C29.0932 37.4749 29.0321 37.487 28.975 37.5106C28.918 37.5342 28.8662 37.5688 28.8225 37.6125C28.7788 37.6561 28.7442 37.7079 28.7205 37.7649C28.6969 37.8219 28.6847 37.883 28.6847 37.9448C28.6847 38.0065 28.6968 38.0676 28.7204 38.1246C28.744 38.1817 28.7786 38.2335 28.8222 38.2772C28.9103 38.3654 29.0299 38.4149 29.1545 38.415C29.2792 38.415 29.3987 38.3656 29.4869 38.2775C29.5751 38.1893 29.6247 38.0698 29.6247 37.9451C29.6248 37.8205 29.5753 37.7009 29.4872 37.6127ZM39.5205 37.255C37.6705 41.0955 34.9844 42.7705 33.0567 43.4994C31.6289 44.0388 30.4111 44.1538 29.7517 44.1705C29.5583 44.1883 29.3639 44.2 29.1672 44.2C25.715 44.2 22.9167 41.4016 22.9167 37.95C22.9167 34.4983 25.715 31.7 29.1667 31.7C32.6189 31.7 35.4167 34.4983 35.4167 37.95C35.4183 39.3765 34.9293 40.7601 34.0317 41.8688C35.605 40.9733 37.2783 39.4344 38.5528 36.7894C38.6191 36.6689 38.7291 36.5784 38.86 36.5366C38.991 36.4947 39.1331 36.5045 39.257 36.5641C39.3809 36.6238 39.4773 36.7286 39.5263 36.8571C39.5753 36.9856 39.5733 37.1279 39.5205 37.255Z" fill="#F9F9F9"/>
</g>
<path d="M50.9325 42.4V32.9454H56.9893V34.3811H52.6452V36.9479H56.5739V38.3836H52.6452V42.4H50.9325Z" fill="#F9F9F9"/>
<path d="M61.6824 32.9454V42.4H59.9697V32.9454H61.6824Z" fill="#F9F9F9"/>
<path d="M64.9571 42.4V32.9454H66.6698V40.9642H70.8339V42.4H64.9571Z" fill="#F9F9F9"/>
<path d="M73.7404 32.9454H75.8363L78.6431 39.7963H78.7539L81.5607 32.9454H83.6566V42.4H82.0131V35.9046H81.9254L79.3125 42.3723H78.0845L75.4716 35.8907H75.3838V42.4H73.7404V32.9454Z" fill="#F9F9F9"/>
<path d="M86.9416 42.4V32.9454H93.0908V34.3811H88.6543V36.9479H92.7722V38.3836H88.6543V40.9642H93.1277V42.4H86.9416Z" fill="#F9F9F9"/>
<path d="M101.396 35.5445C101.353 35.1413 101.172 34.8274 100.852 34.6027C100.535 34.3781 100.122 34.2657 99.6143 34.2657C99.2573 34.2657 98.9511 34.3196 98.6956 34.4273C98.4402 34.535 98.2447 34.6812 98.1093 34.8659C97.9739 35.0505 97.9047 35.2614 97.9016 35.4983C97.9016 35.6953 97.9462 35.8661 98.0355 36.0108C98.1278 36.1554 98.2524 36.2785 98.4094 36.3801C98.5663 36.4786 98.7402 36.5617 98.931 36.6294C99.1219 36.6971 99.3142 36.754 99.5081 36.8002L100.394 37.0218C100.751 37.1049 101.095 37.2172 101.424 37.3588C101.756 37.5003 102.053 37.6789 102.315 37.8943C102.58 38.1097 102.789 38.3698 102.943 38.6745C103.097 38.9792 103.174 39.3362 103.174 39.7455C103.174 40.2995 103.032 40.7873 102.749 41.2089C102.466 41.6275 102.056 41.9552 101.521 42.1922C100.988 42.4261 100.344 42.5431 99.5866 42.5431C98.851 42.5431 98.2124 42.4292 97.6707 42.2015C97.1322 41.9737 96.7105 41.6413 96.4058 41.2043C96.1042 40.7673 95.9411 40.2348 95.9165 39.607H97.6015C97.6261 39.9363 97.7277 40.2102 97.9062 40.4287C98.0847 40.6472 98.3171 40.8104 98.6033 40.9181C98.8926 41.0258 99.2157 41.0797 99.5727 41.0797C99.9451 41.0797 100.271 41.0243 100.551 40.9135C100.835 40.7996 101.056 40.6426 101.216 40.4426C101.376 40.2395 101.458 40.0025 101.461 39.7316C101.458 39.4854 101.385 39.2823 101.244 39.1223C101.102 38.9592 100.904 38.8237 100.648 38.716C100.396 38.6052 100.101 38.5067 99.762 38.4206L98.6864 38.1436C97.9077 37.9435 97.2922 37.6404 96.8398 37.2341C96.3904 36.8248 96.1658 36.2816 96.1658 35.6045C96.1658 35.0475 96.3166 34.5597 96.6182 34.1411C96.9229 33.7225 97.3368 33.3978 97.86 33.167C98.3832 32.9331 98.9757 32.8162 99.6374 32.8162C100.308 32.8162 100.896 32.9331 101.401 33.167C101.909 33.3978 102.307 33.7195 102.597 34.1319C102.886 34.5412 103.035 35.0121 103.044 35.5445H101.396Z" fill="#F9F9F9"/>
<defs>
<clipPath id="clip0_67_182">
<rect width="24" height="20" fill="white" transform="translate(18 27.95)"/>
</clipPath>
</defs>
</svg>
