<svg width="201" height="68" viewBox="0 0 201 68" fill="none" xmlns="http://www.w3.org/2000/svg">
<rect width="201" height="68" rx="16" fill="#FF9669"/>
<g filter="url(#filter0_d_73_20)">
<path d="M37 25L51 34L37 43V25Z" stroke="#F8F7F9" stroke-width="3" stroke-linecap="round" stroke-linejoin="round"/>
</g>
<g filter="url(#filter1_d_73_20)">
<path d="M87.976 39.024H81.688L80.68 42H76.384L82.48 25.152H87.232L93.328 42H88.984L87.976 39.024ZM86.92 35.856L84.832 29.688L82.768 35.856H86.92ZM100.631 42.192C99.4633 42.192 98.4233 41.992 97.5113 41.592C96.5993 41.192 95.8793 40.648 95.3513 39.96C94.8233 39.256 94.5273 38.472 94.4633 37.608H98.5193C98.5673 38.072 98.7833 38.448 99.1673 38.736C99.5513 39.024 100.023 39.168 100.583 39.168C101.095 39.168 101.487 39.072 101.759 38.88C102.047 38.672 102.191 38.408 102.191 38.088C102.191 37.704 101.991 37.424 101.591 37.248C101.191 37.056 100.543 36.848 99.6473 36.624C98.6873 36.4 97.8873 36.168 97.2473 35.928C96.6073 35.672 96.0553 35.28 95.5913 34.752C95.1273 34.208 94.8953 33.48 94.8953 32.568C94.8953 31.8 95.1033 31.104 95.5193 30.48C95.9513 29.84 96.5753 29.336 97.3913 28.968C98.2233 28.6 99.2073 28.416 100.343 28.416C102.023 28.416 103.343 28.832 104.303 29.664C105.279 30.496 105.839 31.6 105.983 32.976H102.191C102.127 32.512 101.919 32.144 101.567 31.872C101.231 31.6 100.783 31.464 100.223 31.464C99.7433 31.464 99.3753 31.56 99.1193 31.752C98.8633 31.928 98.7353 32.176 98.7353 32.496C98.7353 32.88 98.9353 33.168 99.3353 33.36C99.7513 33.552 100.391 33.744 101.255 33.936C102.247 34.192 103.055 34.448 103.679 34.704C104.303 34.944 104.847 35.344 105.311 35.904C105.791 36.448 106.039 37.184 106.055 38.112C106.055 38.896 105.831 39.6 105.383 40.224C104.951 40.832 104.319 41.312 103.487 41.664C102.671 42.016 101.719 42.192 100.631 42.192ZM114.014 42.192C112.846 42.192 111.806 41.992 110.894 41.592C109.982 41.192 109.262 40.648 108.734 39.96C108.206 39.256 107.91 38.472 107.846 37.608H111.902C111.95 38.072 112.166 38.448 112.55 38.736C112.934 39.024 113.406 39.168 113.966 39.168C114.478 39.168 114.87 39.072 115.142 38.88C115.43 38.672 115.574 38.408 115.574 38.088C115.574 37.704 115.374 37.424 114.974 37.248C114.574 37.056 113.926 36.848 113.03 36.624C112.07 36.4 111.27 36.168 110.63 35.928C109.99 35.672 109.438 35.28 108.974 34.752C108.51 34.208 108.278 33.48 108.278 32.568C108.278 31.8 108.486 31.104 108.902 30.48C109.334 29.84 109.958 29.336 110.774 28.968C111.606 28.6 112.59 28.416 113.726 28.416C115.406 28.416 116.726 28.832 117.686 29.664C118.662 30.496 119.222 31.6 119.366 32.976H115.574C115.51 32.512 115.302 32.144 114.95 31.872C114.614 31.6 114.166 31.464 113.606 31.464C113.126 31.464 112.758 31.56 112.502 31.752C112.246 31.928 112.118 32.176 112.118 32.496C112.118 32.88 112.318 33.168 112.718 33.36C113.134 33.552 113.774 33.744 114.638 33.936C115.63 34.192 116.438 34.448 117.062 34.704C117.686 34.944 118.23 35.344 118.694 35.904C119.174 36.448 119.422 37.184 119.438 38.112C119.438 38.896 119.214 39.6 118.766 40.224C118.334 40.832 117.702 41.312 116.87 41.664C116.054 42.016 115.102 42.192 114.014 42.192ZM124.013 27.216C123.293 27.216 122.701 27.008 122.237 26.592C121.789 26.16 121.565 25.632 121.565 25.008C121.565 24.368 121.789 23.84 122.237 23.424C122.701 22.992 123.293 22.776 124.013 22.776C124.717 22.776 125.293 22.992 125.741 23.424C126.205 23.84 126.437 24.368 126.437 25.008C126.437 25.632 126.205 26.16 125.741 26.592C125.293 27.008 124.717 27.216 124.013 27.216ZM126.053 28.608V42H121.949V28.608H126.053ZM134.475 42.192C133.307 42.192 132.267 41.992 131.355 41.592C130.443 41.192 129.723 40.648 129.195 39.96C128.667 39.256 128.371 38.472 128.307 37.608H132.363C132.411 38.072 132.627 38.448 133.011 38.736C133.395 39.024 133.867 39.168 134.427 39.168C134.939 39.168 135.331 39.072 135.603 38.88C135.891 38.672 136.035 38.408 136.035 38.088C136.035 37.704 135.835 37.424 135.435 37.248C135.035 37.056 134.387 36.848 133.491 36.624C132.531 36.4 131.731 36.168 131.091 35.928C130.451 35.672 129.899 35.28 129.435 34.752C128.971 34.208 128.739 33.48 128.739 32.568C128.739 31.8 128.947 31.104 129.363 30.48C129.795 29.84 130.419 29.336 131.235 28.968C132.067 28.6 133.051 28.416 134.187 28.416C135.867 28.416 137.187 28.832 138.147 29.664C139.123 30.496 139.683 31.6 139.827 32.976H136.035C135.971 32.512 135.763 32.144 135.411 31.872C135.075 31.6 134.627 31.464 134.067 31.464C133.587 31.464 133.219 31.56 132.963 31.752C132.707 31.928 132.579 32.176 132.579 32.496C132.579 32.88 132.779 33.168 133.179 33.36C133.595 33.552 134.235 33.744 135.099 33.936C136.091 34.192 136.899 34.448 137.523 34.704C138.147 34.944 138.691 35.344 139.155 35.904C139.635 36.448 139.883 37.184 139.899 38.112C139.899 38.896 139.675 39.6 139.227 40.224C138.795 40.832 138.163 41.312 137.331 41.664C136.515 42.016 135.563 42.192 134.475 42.192ZM149.874 38.52V42H147.786C146.298 42 145.138 41.64 144.306 40.92C143.474 40.184 143.058 38.992 143.058 37.344V32.016H141.426V28.608H143.058V25.344H147.162V28.608H149.85V32.016H147.162V37.392C147.162 37.792 147.258 38.08 147.45 38.256C147.642 38.432 147.962 38.52 148.41 38.52H149.874ZM154.224 27.216C153.504 27.216 152.912 27.008 152.448 26.592C152 26.16 151.776 25.632 151.776 25.008C151.776 24.368 152 23.84 152.448 23.424C152.912 22.992 153.504 22.776 154.224 22.776C154.928 22.776 155.504 22.992 155.952 23.424C156.416 23.84 156.648 24.368 156.648 25.008C156.648 25.632 156.416 26.16 155.952 26.592C155.504 27.008 154.928 27.216 154.224 27.216ZM156.264 28.608V42H152.16V28.608H156.264ZM163.342 30.84C163.822 30.104 164.422 29.528 165.142 29.112C165.862 28.68 166.662 28.464 167.542 28.464V32.808H166.414C165.39 32.808 164.622 33.032 164.11 33.48C163.598 33.912 163.342 34.68 163.342 35.784V42H159.238V28.608H163.342V30.84Z" fill="#F8F7F9"/>
</g>
<defs>
<filter id="filter0_d_73_20" x="30" y="22" width="28" height="30" filterUnits="userSpaceOnUse" color-interpolation-filters="sRGB">
<feFlood flood-opacity="0" result="BackgroundImageFix"/>
<feColorMatrix in="SourceAlpha" type="matrix" values="0 0 0 0 0 0 0 0 0 0 0 0 0 0 0 0 0 0 127 0" result="hardAlpha"/>
<feOffset dy="4"/>
<feGaussianBlur stdDeviation="1"/>
<feComposite in2="hardAlpha" operator="out"/>
<feColorMatrix type="matrix" values="0 0 0 0 0 0 0 0 0 0 0 0 0 0 0 0 0 0 0.5 0"/>
<feBlend mode="normal" in2="BackgroundImageFix" result="effect1_dropShadow_73_20"/>
<feBlend mode="normal" in="SourceGraphic" in2="effect1_dropShadow_73_20" result="shape"/>
</filter>
<filter id="filter1_d_73_20" x="74.384" y="22.776" width="95.158" height="25.416" filterUnits="userSpaceOnUse" color-interpolation-filters="sRGB">
<feFlood flood-opacity="0" result="BackgroundImageFix"/>
<feColorMatrix in="SourceAlpha" type="matrix" values="0 0 0 0 0 0 0 0 0 0 0 0 0 0 0 0 0 0 127 0" result="hardAlpha"/>
<feOffset dy="4"/>
<feGaussianBlur stdDeviation="1"/>
<feComposite in2="hardAlpha" operator="out"/>
<feColorMatrix type="matrix" values="0 0 0 0 0 0 0 0 0 0 0 0 0 0 0 0 0 0 0.5 0"/>
<feBlend mode="normal" in2="BackgroundImageFix" result="effect1_dropShadow_73_20"/>
<feBlend mode="normal" in="SourceGraphic" in2="effect1_dropShadow_73_20" result="shape"/>
</filter>
</defs>
</svg>
