<svg width="118" height="76" viewBox="0 0 118 76" fill="none" xmlns="http://www.w3.org/2000/svg">
<g clip-path="url(#clip0_67_167)">
<path d="M34.9344 38.7856V44.5934H31.6155V41.6895H28.2966V44.5934H24.9783V38.7856H22.9039L29.9561 31.7334L37.0083 38.7856H34.9344Z" fill="#F9F9F9"/>
</g>
<path d="M52.6453 32.9954V42.4499H50.9326V32.9954H52.6453Z" fill="#F9F9F9"/>
<path d="M63.6895 32.9954V42.4499H62.166L57.7111 36.0099H57.6327V42.4499H55.9199V32.9954H57.4526L61.9029 39.44H61.986V32.9954H63.6895Z" fill="#F9F9F9"/>
<path d="M68.6884 32.9954V42.4499H66.9757V32.9954H68.6884ZM67.1927 32.0629L68.2267 29.9531H69.861L68.4437 32.0629H67.1927Z" fill="#F9F9F9"/>
<path d="M80.0557 36.1854H78.3292C78.2799 35.9022 78.1892 35.6514 78.0568 35.4329C77.9245 35.2113 77.7598 35.0236 77.5629 34.8697C77.3659 34.7158 77.1412 34.6004 76.8888 34.5234C76.6396 34.4434 76.3703 34.4034 76.081 34.4034C75.567 34.4034 75.1115 34.5327 74.7145 34.7912C74.3175 35.0466 74.0066 35.4221 73.782 35.9176C73.5573 36.41 73.445 37.0117 73.445 37.7227C73.445 38.4459 73.5573 39.0553 73.782 39.5508C74.0097 40.0432 74.3205 40.4156 74.7145 40.668C75.1115 40.9173 75.5655 41.0419 76.0763 41.0419C76.3595 41.0419 76.6242 41.005 76.8704 40.9311C77.1197 40.8542 77.3428 40.7418 77.5398 40.5941C77.7398 40.4464 77.9075 40.2648 78.043 40.0494C78.1815 39.8339 78.2769 39.5877 78.3292 39.3107L80.0557 39.32C79.9911 39.7693 79.8511 40.1909 79.6357 40.5849C79.4233 40.9788 79.1448 41.3266 78.8001 41.6282C78.4554 41.9267 78.0522 42.1606 77.5906 42.3299C77.1289 42.4961 76.6165 42.5792 76.0533 42.5792C75.2223 42.5792 74.4806 42.3868 73.8281 42.0021C73.1757 41.6174 72.6617 41.0619 72.2862 40.3356C71.9107 39.6093 71.723 38.7383 71.723 37.7227C71.723 36.704 71.9123 35.833 72.2908 35.1097C72.6694 34.3834 73.1849 33.8279 73.8374 33.4432C74.4898 33.0585 75.2285 32.8661 76.0533 32.8661C76.5795 32.8661 77.0689 32.94 77.5213 33.0877C77.9737 33.2354 78.3769 33.4524 78.7308 33.7386C79.0848 34.0218 79.3756 34.3696 79.6033 34.782C79.8342 35.1913 79.985 35.6591 80.0557 36.1854Z" fill="#F9F9F9"/>
<path d="M84.7569 32.9954V42.4499H83.0442V32.9954H84.7569Z" fill="#F9F9F9"/>
<path d="M96.4797 37.7227C96.4797 38.7414 96.2889 39.6139 95.9073 40.3402C95.5287 41.0634 95.0117 41.6174 94.3562 42.0021C93.7037 42.3868 92.9635 42.5792 92.1356 42.5792C91.3077 42.5792 90.566 42.3868 89.9105 42.0021C89.258 41.6143 88.741 41.0588 88.3593 40.3356C87.9808 39.6093 87.7915 38.7383 87.7915 37.7227C87.7915 36.704 87.9808 35.833 88.3593 35.1097C88.741 34.3834 89.258 33.8279 89.9105 33.4432C90.566 33.0585 91.3077 32.8661 92.1356 32.8661C92.9635 32.8661 93.7037 33.0585 94.3562 33.4432C95.0117 33.8279 95.5287 34.3834 95.9073 35.1097C96.2889 35.833 96.4797 36.704 96.4797 37.7227ZM94.7578 37.7227C94.7578 37.0056 94.6455 36.4008 94.4208 35.9084C94.1992 35.4129 93.8914 35.0389 93.4975 34.7866C93.1035 34.5311 92.6496 34.4034 92.1356 34.4034C91.6217 34.4034 91.1677 34.5311 90.7738 34.7866C90.3798 35.0389 90.0705 35.4129 89.8459 35.9084C89.6243 36.4008 89.5135 37.0056 89.5135 37.7227C89.5135 38.4397 89.6243 39.046 89.8459 39.5415C90.0705 40.034 90.3798 40.4079 90.7738 40.6634C91.1677 40.9157 91.6217 41.0419 92.1356 41.0419C92.6496 41.0419 93.1035 40.9157 93.4975 40.6634C93.8914 40.4079 94.1992 40.034 94.4208 39.5415C94.6455 39.046 94.7578 38.4397 94.7578 37.7227Z" fill="#F9F9F9"/>
<defs>
<clipPath id="clip0_67_167">
<rect width="24" height="20" fill="white" transform="translate(18 28)"/>
</clipPath>
</defs>
</svg>
