<svg width="157" height="76" viewBox="0 0 157 76" fill="none" xmlns="http://www.w3.org/2000/svg">
<g clip-path="url(#clip0_67_177)">
<path d="M30.6353 34.5852H27.3647V31.3147C27.3647 30.9527 27.2209 30.6056 26.965 30.3497C26.7091 30.0937 26.3619 29.95 26 29.95C25.6381 29.95 25.2909 30.0937 25.035 30.3497C24.7791 30.6056 24.6353 30.9527 24.6353 31.3147V34.5852H21.3647C21.0028 34.5852 20.6556 34.729 20.3997 34.985C20.1438 35.2409 20 35.588 20 35.95C20 36.3119 20.1438 36.659 20.3997 36.9149C20.6556 37.1709 21.0028 37.3147 21.3647 37.3147H24.6353V40.5852C24.6353 40.9472 24.7791 41.2943 25.035 41.5502C25.2909 41.8062 25.6381 41.95 26 41.95C26.3619 41.95 26.7091 41.8062 26.965 41.5502C27.2209 41.2943 27.3647 40.9472 27.3647 40.5852V37.3147H30.6353C30.9972 37.3147 31.3444 37.1709 31.6003 36.9149C31.8562 36.659 32 36.3119 32 35.95C32 35.588 31.8562 35.2409 31.6003 34.985C31.3444 34.729 30.9972 34.5852 30.6353 34.5852Z" fill="#F9F9F9"/>
</g>
<path d="M42.8608 32.6728H44.7954L47.3863 38.9966H47.4886L50.0795 32.6728H52.0142V41.4001H50.4971V35.4043H50.4162L48.0042 41.3745H46.8707L44.4588 35.3915H44.3778V41.4001H42.8608V32.6728Z" fill="#F9F9F9"/>
<path d="M56.7367 32.6728V41.4001H55.1558V32.6728H56.7367Z" fill="#F9F9F9"/>
<path d="M67.0406 32.6728V41.4001H65.6344L61.5222 35.4555H61.4497V41.4001H59.8687V32.6728H61.2835L65.3915 38.6216H65.4682V32.6728H67.0406Z" fill="#F9F9F9"/>
<path d="M70.1833 41.4001V32.6728H71.7642V36.3674H75.8083V32.6728H77.3935V41.4001H75.8083V37.6927H71.7642V41.4001H70.1833Z" fill="#F9F9F9"/>
<path d="M81.6537 41.4001H79.9662L83.0387 32.6728H84.9904L88.0671 41.4001H86.3796L84.0486 34.4626H83.9804L81.6537 41.4001ZM81.7091 37.9782H86.3114V39.2481H81.7091V37.9782Z" fill="#F9F9F9"/>
<path d="M95.0331 41.4001V32.6728H96.6141V40.0748H100.458V41.4001H95.0331Z" fill="#F9F9F9"/>
<path d="M104.831 32.6728V41.4001H103.25V32.6728H104.831Z" fill="#F9F9F9"/>
<path d="M112.706 35.0719C112.666 34.6998 112.498 34.41 112.203 34.2026C111.91 33.9952 111.53 33.8915 111.061 33.8915C110.731 33.8915 110.449 33.9413 110.213 34.0407C109.977 34.1401 109.797 34.2751 109.672 34.4455C109.547 34.616 109.483 34.8106 109.48 35.0293C109.48 35.2111 109.521 35.3688 109.604 35.5023C109.689 35.6359 109.804 35.7495 109.949 35.8432C110.094 35.9341 110.254 36.0109 110.43 36.0734C110.606 36.1359 110.784 36.1884 110.963 36.231L111.781 36.4356C112.111 36.5123 112.427 36.616 112.731 36.7466C113.038 36.8773 113.312 37.0421 113.554 37.241C113.798 37.4398 113.991 37.6799 114.133 37.9611C114.275 38.2424 114.346 38.5719 114.346 38.9498C114.346 39.4611 114.216 39.9114 113.954 40.3006C113.693 40.687 113.315 40.9895 112.821 41.2083C112.329 41.4242 111.734 41.5322 111.035 41.5322C110.356 41.5322 109.767 41.427 109.267 41.2168C108.77 41.0066 108.381 40.6998 108.099 40.2964C107.821 39.893 107.67 39.4015 107.648 38.8219H109.203C109.226 39.1259 109.32 39.3788 109.484 39.5805C109.649 39.7822 109.864 39.9327 110.128 40.0322C110.395 40.1316 110.693 40.1813 111.023 40.1813C111.366 40.1813 111.668 40.1302 111.926 40.0279C112.187 39.9228 112.392 39.7779 112.54 39.5932C112.687 39.4057 112.763 39.187 112.766 38.937C112.763 38.7097 112.696 38.5222 112.565 38.3745C112.435 38.2239 112.251 38.0989 112.016 37.9995C111.783 37.8972 111.51 37.8063 111.197 37.7268L110.204 37.4711C109.486 37.2864 108.918 37.0066 108.5 36.6316C108.085 36.2538 107.878 35.7523 107.878 35.1273C107.878 34.6131 108.017 34.1628 108.295 33.7765C108.577 33.3901 108.959 33.0904 109.442 32.8773C109.925 32.6614 110.471 32.5535 111.082 32.5535C111.702 32.5535 112.244 32.6614 112.71 32.8773C113.179 33.0904 113.547 33.3873 113.814 33.768C114.081 34.1458 114.219 34.5805 114.227 35.0719H112.706Z" fill="#F9F9F9"/>
<path d="M116.792 33.9981V32.6728H123.755V33.9981H121.058V41.4001H119.49V33.9981H116.792Z" fill="#F9F9F9"/>
<path d="M126.584 41.4001H124.896L127.969 32.6728H129.921L132.997 41.4001H131.31L128.979 34.4626H128.911L126.584 41.4001ZM126.639 37.9782H131.242V39.2481H126.639V37.9782Z" fill="#F9F9F9"/>
<defs>
<clipPath id="clip0_67_177">
<rect width="12" height="12" fill="white" transform="translate(20 29.95)"/>
</clipPath>
</defs>
</svg>
