<svg width="145" height="76" viewBox="0 0 145 76" fill="none" xmlns="http://www.w3.org/2000/svg">
<g clip-path="url(#clip0_67_172)">
<path d="M32.8978 41.5205C30.7128 43.0549 27.6766 42.846 25.7233 40.8927C23.5366 38.706 23.5366 35.1605 25.7233 32.9733C27.9105 30.7866 31.4566 30.7866 33.6433 32.9733C35.4916 34.8216 35.7778 37.641 34.5016 39.7899L37.035 42.3221C37.1382 42.4253 37.2201 42.5478 37.276 42.6827C37.3318 42.8175 37.3606 42.962 37.3606 43.108C37.3606 43.2539 37.3318 43.3984 37.276 43.5333C37.2201 43.6681 37.1382 43.7906 37.035 43.8938L36.9383 43.9899C36.7299 44.1982 36.4474 44.3152 36.1528 44.3152C35.8581 44.3152 35.5756 44.1982 35.3672 43.9899L32.8978 41.5205ZM29.6833 40.7649C30.6995 40.7649 31.6741 40.3612 32.3927 39.6426C33.1113 38.9241 33.515 37.9495 33.515 36.9333C33.515 35.917 33.1113 34.9424 32.3927 34.2239C31.6741 33.5053 30.6995 33.1016 29.6833 33.1016C28.6671 33.1016 27.6925 33.5053 26.9739 34.2239C26.2553 34.9424 25.8516 35.917 25.8516 36.9333C25.8516 37.9495 26.2553 38.9241 26.9739 39.6426C27.6925 40.3612 28.6671 40.7649 29.6833 40.7649Z" fill="#F9F9F9"/>
</g>
<path d="M51.6826 42.45V32.9955H55.228C55.9543 32.9955 56.5637 33.1309 57.0561 33.4017C57.5516 33.6726 57.9256 34.045 58.1779 34.5189C58.4334 34.9898 58.5611 35.5253 58.5611 36.1254C58.5611 36.7317 58.4334 37.2703 58.1779 37.7412C57.9225 38.2121 57.5455 38.5829 57.0469 38.8538C56.5483 39.1215 55.9343 39.2554 55.2049 39.2554H52.8551V37.8474H54.9741C55.3988 37.8474 55.7466 37.7735 56.0174 37.6258C56.2883 37.4781 56.4883 37.2749 56.6176 37.0164C56.7499 36.7579 56.8161 36.4609 56.8161 36.1254C56.8161 35.79 56.7499 35.4945 56.6176 35.2391C56.4883 34.9836 56.2867 34.7851 56.0128 34.6436C55.742 34.4989 55.3927 34.4266 54.9649 34.4266H53.3953V42.45H51.6826Z" fill="#F9F9F9"/>
<path d="M61.4688 42.45V32.9955H67.6179V34.4312H63.1815V36.998H67.2994V38.4337H63.1815V41.0143H67.6548V42.45H61.4688Z" fill="#F9F9F9"/>
<path d="M75.9234 35.5945C75.8803 35.1914 75.6987 34.8775 75.3786 34.6528C75.0616 34.4281 74.6492 34.3158 74.1414 34.3158C73.7844 34.3158 73.4782 34.3696 73.2228 34.4774C72.9673 34.5851 72.7719 34.7313 72.6365 34.9159C72.501 35.1006 72.4318 35.3114 72.4287 35.5484C72.4287 35.7454 72.4733 35.9162 72.5626 36.0608C72.6549 36.2055 72.7796 36.3286 72.9365 36.4301C73.0935 36.5286 73.2674 36.6117 73.4582 36.6794C73.649 36.7471 73.8414 36.8041 74.0353 36.8502L74.9216 37.0718C75.2786 37.1549 75.6218 37.2673 75.9511 37.4088C76.2835 37.5504 76.5805 37.7289 76.8421 37.9443C77.1067 38.1598 77.316 38.4198 77.4699 38.7245C77.6238 39.0292 77.7007 39.3862 77.7007 39.7955C77.7007 40.3495 77.5592 40.8373 77.276 41.259C76.9929 41.6775 76.5835 42.0053 76.048 42.2423C75.5156 42.4762 74.8708 42.5931 74.1137 42.5931C73.3782 42.5931 72.7396 42.4793 72.1979 42.2515C71.6593 42.0238 71.2377 41.6914 70.933 41.2544C70.6314 40.8173 70.4683 40.2849 70.4436 39.657H72.1286C72.1533 39.9864 72.2548 40.2603 72.4333 40.4788C72.6118 40.6973 72.8442 40.8604 73.1304 40.9681C73.4197 41.0758 73.7429 41.1297 74.0999 41.1297C74.4723 41.1297 74.7985 41.0743 75.0786 40.9635C75.3617 40.8496 75.5833 40.6927 75.7433 40.4926C75.9034 40.2895 75.9849 40.0525 75.988 39.7817C75.9849 39.5355 75.9126 39.3324 75.771 39.1723C75.6295 39.0092 75.431 38.8738 75.1755 38.7661C74.9232 38.6553 74.6277 38.5568 74.2892 38.4706L73.2135 38.1936C72.4349 37.9936 71.8193 37.6904 71.3669 37.2842C70.9176 36.8749 70.6929 36.3316 70.6929 35.6546C70.6929 35.0975 70.8437 34.6097 71.1453 34.1911C71.45 33.7726 71.864 33.4479 72.3872 33.2171C72.9104 32.9832 73.5028 32.8662 74.1645 32.8662C74.8354 32.8662 75.4233 32.9832 75.928 33.2171C76.4358 33.4479 76.8344 33.7695 77.1237 34.1819C77.413 34.5912 77.5622 35.0621 77.5715 35.5945H75.9234Z" fill="#F9F9F9"/>
<path d="M84.17 39.2739H85.7211L86.6398 40.4649L87.2954 41.2405L88.8696 43.2625H87.2076L86.1366 41.9053L85.6796 41.259L84.17 39.2739ZM89.0958 37.7227C89.0958 38.7414 88.905 39.614 88.5233 40.3403C88.1448 41.0635 87.6277 41.6175 86.9722 42.0022C86.3197 42.3869 85.5796 42.5793 84.7517 42.5793C83.9238 42.5793 83.1821 42.3869 82.5265 42.0022C81.8741 41.6144 81.357 41.0589 80.9754 40.3357C80.5969 39.6093 80.4076 38.7384 80.4076 37.7227C80.4076 36.704 80.5969 35.8331 80.9754 35.1098C81.357 34.3835 81.8741 33.828 82.5265 33.4433C83.1821 33.0586 83.9238 32.8662 84.7517 32.8662C85.5796 32.8662 86.3197 33.0586 86.9722 33.4433C87.6277 33.828 88.1448 34.3835 88.5233 35.1098C88.905 35.8331 89.0958 36.704 89.0958 37.7227ZM87.3738 37.7227C87.3738 37.0057 87.2615 36.4009 87.0368 35.9085C86.8152 35.413 86.5075 35.039 86.1135 34.7867C85.7196 34.5312 85.2657 34.4035 84.7517 34.4035C84.2377 34.4035 83.7838 34.5312 83.3898 34.7867C82.9959 35.039 82.6866 35.413 82.4619 35.9085C82.2403 36.4009 82.1295 37.0057 82.1295 37.7227C82.1295 38.4398 82.2403 39.0461 82.4619 39.5416C82.6866 40.0341 82.9959 40.408 83.3898 40.6634C83.7838 40.9158 84.2377 41.042 84.7517 41.042C85.2657 41.042 85.7196 40.9158 86.1135 40.6634C86.5075 40.408 86.8152 40.0341 87.0368 39.5416C87.2615 39.0461 87.3738 38.4398 87.3738 37.7227Z" fill="#F9F9F9"/>
<path d="M98.1076 32.9955H99.8203V39.1723C99.8203 39.8494 99.6603 40.4449 99.3402 40.9589C99.0232 41.4729 98.5769 41.8745 98.0014 42.1638C97.4259 42.45 96.7534 42.5931 95.984 42.5931C95.2115 42.5931 94.5375 42.45 93.962 42.1638C93.3865 41.8745 92.9402 41.4729 92.6232 40.9589C92.3062 40.4449 92.1477 39.8494 92.1477 39.1723V32.9955H93.8604V39.0292C93.8604 39.4231 93.9466 39.774 94.1189 40.0818C94.2944 40.3895 94.5406 40.6311 94.8576 40.8066C95.1746 40.9789 95.5501 41.0651 95.984 41.0651C96.418 41.0651 96.7934 40.9789 97.1104 40.8066C97.4305 40.6311 97.6767 40.3895 97.8491 40.0818C98.0214 39.774 98.1076 39.4231 98.1076 39.0292V32.9955Z" fill="#F9F9F9"/>
<path d="M104.815 32.9955V42.45H103.102V32.9955H104.815Z" fill="#F9F9F9"/>
<path d="M113.227 35.5945C113.184 35.1914 113.003 34.8775 112.683 34.6528C112.366 34.4281 111.953 34.3158 111.445 34.3158C111.088 34.3158 110.782 34.3696 110.527 34.4774C110.271 34.5851 110.076 34.7313 109.94 34.9159C109.805 35.1006 109.736 35.3114 109.733 35.5484C109.733 35.7454 109.777 35.9162 109.867 36.0608C109.959 36.2055 110.084 36.3286 110.241 36.4301C110.398 36.5286 110.571 36.6117 110.762 36.6794C110.953 36.7471 111.145 36.8041 111.339 36.8502L112.226 37.0718C112.583 37.1549 112.926 37.2673 113.255 37.4088C113.587 37.5504 113.884 37.7289 114.146 37.9443C114.411 38.1598 114.62 38.4198 114.774 38.7245C114.928 39.0292 115.005 39.3862 115.005 39.7955C115.005 40.3495 114.863 40.8373 114.58 41.259C114.297 41.6775 113.888 42.0053 113.352 42.2423C112.82 42.4762 112.175 42.5931 111.418 42.5931C110.682 42.5931 110.044 42.4793 109.502 42.2515C108.963 42.0238 108.542 41.6914 108.237 41.2544C107.935 40.8173 107.772 40.2849 107.748 39.657H109.433C109.457 39.9864 109.559 40.2603 109.737 40.4788C109.916 40.6973 110.148 40.8604 110.434 40.9681C110.724 41.0758 111.047 41.1297 111.404 41.1297C111.776 41.1297 112.103 41.0743 112.383 40.9635C112.666 40.8496 112.887 40.6927 113.047 40.4926C113.207 40.2895 113.289 40.0525 113.292 39.7817C113.289 39.5355 113.217 39.3324 113.075 39.1723C112.933 39.0092 112.735 38.8738 112.48 38.7661C112.227 38.6553 111.932 38.5568 111.593 38.4706L110.518 38.1936C109.739 37.9936 109.123 37.6904 108.671 37.2842C108.222 36.8749 107.997 36.3316 107.997 35.6546C107.997 35.0975 108.148 34.6097 108.449 34.1911C108.754 33.7726 109.168 33.4479 109.691 33.2171C110.214 32.9832 110.807 32.8662 111.469 32.8662C112.139 32.8662 112.727 32.9832 113.232 33.2171C113.74 33.4479 114.138 33.7695 114.428 34.1819C114.717 34.5912 114.866 35.0621 114.875 35.5945H113.227Z" fill="#F9F9F9"/>
<path d="M119.013 42.45H117.185L120.514 32.9955H122.628L125.961 42.45H124.133L121.608 34.9344H121.534L119.013 42.45ZM119.073 38.743H124.059V40.1187H119.073V38.743Z" fill="#F9F9F9"/>
<defs>
<clipPath id="clip0_67_172">
<rect width="24" height="20" fill="white" transform="translate(18.75 28)"/>
</clipPath>
</defs>
</svg>
