<svg width="120" height="76" viewBox="0 0 120 76" fill="none" xmlns="http://www.w3.org/2000/svg">
<g clip-path="url(#clip0_67_187)">
<path d="M30.4667 34.5971H34.2011C34.7905 34.5971 35.3557 34.8312 35.7725 35.248C36.1892 35.6647 36.4234 36.23 36.4234 36.8193V42.3943C36.4234 42.9837 36.1892 43.5489 35.7725 43.9657C35.3557 44.3824 34.7905 44.6166 34.2011 44.6166H25.7639C25.1745 44.6166 24.6093 44.3824 24.1926 43.9657C23.7758 43.5489 23.5417 42.9837 23.5417 42.3943V36.8193C23.5417 36.23 23.7758 35.6647 24.1926 35.248C24.6093 34.8312 25.1745 34.5971 25.7639 34.5971H29.2145L27.0028 32.3855C26.9428 32.3255 26.8952 32.2544 26.8628 32.176C26.8303 32.0977 26.8136 32.0138 26.8136 31.929C26.8135 31.8442 26.8302 31.7602 26.8626 31.6819C26.8951 31.6036 26.9426 31.5324 27.0025 31.4724C27.0625 31.4124 27.1336 31.3648 27.2119 31.3324C27.2903 31.2999 27.3742 31.2832 27.459 31.2832C27.5438 31.2831 27.6277 31.2998 27.7061 31.3322C27.7844 31.3646 27.8556 31.4122 27.9156 31.4721L29.8406 33.3971L31.765 31.4721C31.8861 31.351 32.0504 31.283 32.2217 31.283C32.393 31.283 32.5572 31.351 32.6784 31.4721C32.7995 31.5932 32.8675 31.7575 32.8675 31.9288C32.8675 32.1001 32.7995 32.2643 32.6784 32.3855L30.4667 34.5971ZM34.0378 38.8916C34.2909 38.8916 34.5337 38.791 34.7127 38.612C34.8917 38.433 34.9922 38.1903 34.9922 37.9371C34.9922 37.684 34.8917 37.4412 34.7127 37.2622C34.5337 37.0832 34.2909 36.9827 34.0378 36.9827C33.7847 36.9827 33.5419 37.0832 33.3629 37.2622C33.1839 37.4412 33.0834 37.684 33.0834 37.9371C33.0834 38.1903 33.1839 38.433 33.3629 38.612C33.5419 38.791 33.7847 38.8916 34.0378 38.8916ZM34.0378 42.231C34.165 42.2341 34.2916 42.2117 34.4101 42.1651C34.5285 42.1185 34.6364 42.0487 34.7275 41.9598C34.8186 41.8709 34.891 41.7647 34.9404 41.6474C34.9898 41.5301 35.0153 41.4041 35.0153 41.2768C35.0153 41.1496 34.9898 41.0236 34.9404 40.9063C34.891 40.789 34.8186 40.6828 34.7275 40.5939C34.6364 40.5049 34.5285 40.4352 34.4101 40.3886C34.2916 40.342 34.165 40.3196 34.0378 40.3227C33.7887 40.3287 33.5519 40.4318 33.3778 40.6101C33.2038 40.7884 33.1064 41.0277 33.1064 41.2768C33.1064 41.526 33.2038 41.7653 33.3778 41.9435C33.5519 42.1218 33.7887 42.225 34.0378 42.231Z" fill="#F9F9F9"/>
</g>
<path d="M55.6037 35.0719C55.5639 34.6997 55.3963 34.41 55.1009 34.2026C54.8083 33.9952 54.4276 33.8915 53.9588 33.8915C53.6293 33.8915 53.3466 33.9412 53.1108 34.0406C52.875 34.1401 52.6946 34.275 52.5696 34.4455C52.4446 34.6159 52.3807 34.8105 52.3779 35.0293C52.3779 35.2111 52.4191 35.3688 52.5014 35.5023C52.5867 35.6358 52.7017 35.7494 52.8466 35.8432C52.9915 35.9341 53.152 36.0108 53.3281 36.0733C53.5043 36.1358 53.6818 36.1884 53.8608 36.231L54.679 36.4355C55.0085 36.5122 55.3253 36.6159 55.6293 36.7466C55.9361 36.8773 56.2102 37.0421 56.4517 37.2409C56.696 37.4398 56.8892 37.6798 57.0313 37.9611C57.1733 38.2423 57.2443 38.5719 57.2443 38.9497C57.2443 39.4611 57.1137 39.9114 56.8523 40.3006C56.5909 40.6869 56.2131 40.9895 55.7188 41.2083C55.2273 41.4242 54.6321 41.5321 53.9333 41.5321C53.2543 41.5321 52.6648 41.427 52.1648 41.2168C51.6676 41.0065 51.2784 40.6997 50.9972 40.2963C50.7188 39.8929 50.5682 39.4014 50.5455 38.8219H52.1009C52.1236 39.1259 52.2173 39.3787 52.3821 39.5804C52.5469 39.7821 52.7614 39.9327 53.0256 40.0321C53.2926 40.1315 53.5909 40.1813 53.9205 40.1813C54.2642 40.1813 54.5654 40.1301 54.8239 40.0279C55.0852 39.9227 55.2898 39.7779 55.4375 39.5932C55.5852 39.4057 55.6605 39.1869 55.6634 38.9369C55.6605 38.7097 55.5938 38.5222 55.4631 38.3744C55.3324 38.2239 55.1492 38.0989 54.9134 37.9994C54.6804 37.8972 54.4077 37.8063 54.0952 37.7267L53.1023 37.471C52.3835 37.2864 51.8154 37.0065 51.3977 36.6315C50.983 36.2537 50.7756 35.7523 50.7756 35.1273C50.7756 34.6131 50.9148 34.1628 51.1932 33.7764C51.4744 33.3901 51.8566 33.0904 52.3395 32.8773C52.8225 32.6614 53.3693 32.5534 53.9801 32.5534C54.5994 32.5534 55.1421 32.6614 55.608 32.8773C56.0767 33.0904 56.4446 33.3872 56.7117 33.7679C56.9787 34.1458 57.1165 34.5804 57.125 35.0719H55.6037Z" fill="#F9F9F9"/>
<path d="M60.0738 41.4V32.6727H65.7499V33.998H61.6547V36.3673H65.4559V37.6926H61.6547V40.0747H65.784V41.4H60.0738ZM62.3238 31.8119L63.2783 29.8645H64.7868L63.4786 31.8119H62.3238Z" fill="#F9F9F9"/>
<path d="M68.7828 41.4V32.6727H72.0556C72.726 32.6727 73.2885 32.7892 73.7431 33.0222C74.2005 33.2551 74.5456 33.5818 74.7786 34.0023C75.0144 34.4199 75.1323 34.9071 75.1323 35.4639C75.1323 36.0236 75.013 36.5094 74.7743 36.9213C74.5385 37.3304 74.1905 37.6472 73.7303 37.8716C73.2701 38.0932 72.7047 38.204 72.0343 38.204H69.7033V36.8915H71.8212C72.2132 36.8915 72.5343 36.8375 72.7843 36.7296C73.0343 36.6188 73.2189 36.4583 73.3382 36.248C73.4604 36.035 73.5215 35.7736 73.5215 35.4639C73.5215 35.1543 73.4604 34.8901 73.3382 34.6713C73.2161 34.4497 73.03 34.2821 72.78 34.1685C72.53 34.052 72.2076 33.9938 71.8127 33.9938H70.3638V41.4H68.7828ZM73.2914 37.4455L75.4519 41.4H73.6877L71.5655 37.4455H73.2914Z" fill="#F9F9F9"/>
<path d="M79.5885 32.6727V41.4H78.0075V32.6727H79.5885Z" fill="#F9F9F9"/>
<path d="M82.7205 41.4V32.6727H88.3966V33.998H84.3015V36.3673H88.1026V37.6926H84.3015V40.0747H88.4307V41.4H82.7205Z" fill="#F9F9F9"/>
<path d="M96.1725 35.0719C96.1327 34.6997 95.9651 34.41 95.6696 34.2026C95.377 33.9952 94.9963 33.8915 94.5276 33.8915C94.198 33.8915 93.9154 33.9412 93.6796 34.0406C93.4438 34.1401 93.2634 34.275 93.1384 34.4455C93.0134 34.6159 92.9494 34.8105 92.9466 35.0293C92.9466 35.2111 92.9878 35.3688 93.0702 35.5023C93.1554 35.6358 93.2705 35.7494 93.4154 35.8432C93.5602 35.9341 93.7208 36.0108 93.8969 36.0733C94.073 36.1358 94.2506 36.1884 94.4296 36.231L95.2477 36.4355C95.5773 36.5122 95.894 36.6159 96.198 36.7466C96.5048 36.8773 96.779 37.0421 97.0205 37.2409C97.2648 37.4398 97.458 37.6798 97.6 37.9611C97.7421 38.2423 97.8131 38.5719 97.8131 38.9497C97.8131 39.4611 97.6824 39.9114 97.421 40.3006C97.1597 40.6869 96.7818 40.9895 96.2875 41.2083C95.796 41.4242 95.2009 41.5321 94.502 41.5321C93.823 41.5321 93.2335 41.427 92.7335 41.2168C92.2364 41.0065 91.8472 40.6997 91.5659 40.2963C91.2875 39.8929 91.1369 39.4014 91.1142 38.8219H92.6696C92.6923 39.1259 92.7861 39.3787 92.9509 39.5804C93.1156 39.7821 93.3301 39.9327 93.5943 40.0321C93.8614 40.1315 94.1597 40.1813 94.4892 40.1813C94.833 40.1813 95.1341 40.1301 95.3926 40.0279C95.654 39.9227 95.8585 39.7779 96.0063 39.5932C96.154 39.4057 96.2293 39.1869 96.2321 38.9369C96.2293 38.7097 96.1625 38.5222 96.0318 38.3744C95.9012 38.2239 95.7179 38.0989 95.4821 37.9994C95.2492 37.8972 94.9764 37.8063 94.6639 37.7267L93.671 37.471C92.9523 37.2864 92.3841 37.0065 91.9665 36.6315C91.5517 36.2537 91.3443 35.7523 91.3443 35.1273C91.3443 34.6131 91.4835 34.1628 91.7619 33.7764C92.0432 33.3901 92.4253 33.0904 92.9083 32.8773C93.3912 32.6614 93.9381 32.5534 94.5489 32.5534C95.1682 32.5534 95.7108 32.6614 96.1767 32.8773C96.6455 33.0904 97.0134 33.3872 97.2804 33.7679C97.5475 34.1458 97.6852 34.5804 97.6938 35.0719H96.1725Z" fill="#F9F9F9"/>
<defs>
<clipPath id="clip0_67_187">
<rect width="24" height="20" fill="white" transform="translate(18 27.95)"/>
</clipPath>
</defs>
</svg>
